<?xml version="1.0" encoding="UTF-8"?>
<svg id="Layer_2" data-name="Layer 2" xmlns="http://www.w3.org/2000/svg" viewBox="0 0 1962.99 276.72">
  <defs>
    <style>
      .cls-1, .cls-2, .cls-3, .cls-4, .cls-5, .cls-6, .cls-7, .cls-8, .cls-9, .cls-10 {
        fill: none;
      }

      .cls-2, .cls-3, .cls-6, .cls-9 {
        stroke: #ff590a;
      }

      .cls-2, .cls-3, .cls-9 {
        stroke-linecap: round;
        stroke-linejoin: round;
      }

      .cls-11 {
        stroke-width: .23px;
      }

      .cls-11, .cls-12, .cls-13, .cls-14, .cls-15, .cls-16, .cls-17, .cls-18, .cls-19, .cls-20, .cls-21, .cls-22, .cls-23, .cls-4, .cls-24, .cls-25, .cls-5, .cls-26, .cls-6, .cls-7, .cls-8, .cls-27, .cls-28, .cls-29, .cls-30, .cls-31, .cls-10 {
        stroke-miterlimit: 10;
      }

      .cls-11, .cls-32, .cls-14, .cls-15, .cls-19, .cls-26, .cls-28 {
        fill: #fff9f5;
      }

      .cls-11, .cls-14, .cls-19, .cls-26, .cls-28 {
        stroke: #494847;
      }

      .cls-12 {
        stroke-width: .55px;
      }

      .cls-12, .cls-33, .cls-21, .cls-30 {
        fill: #ff590a;
      }

      .cls-12, .cls-21, .cls-30 {
        stroke: #707070;
      }

      .cls-3 {
        stroke-dasharray: 0 0 7.99 7.99;
      }

      .cls-13 {
        stroke-width: .16px;
      }

      .cls-13, .cls-16, .cls-17, .cls-18, .cls-24, .cls-27, .cls-29 {
        stroke: #000;
      }

      .cls-13, .cls-16, .cls-18, .cls-22, .cls-24 {
        fill: #eae4e1;
      }

      .cls-34 {
        fill: #f9ed10;
      }

      .cls-35, .cls-17 {
        fill: #ede6e2;
      }

      .cls-36, .cls-31 {
        fill: #fff;
      }

      .cls-37 {
        fill: #ff895a;
      }

      .cls-38 {
        fill: #8e8e8e;
      }

      .cls-39 {
        fill: #a5a3a2;
      }

      .cls-40 {
        fill: #bfbbb8;
      }

      .cls-41, .cls-23, .cls-25 {
        fill: #ccc8c6;
      }

      .cls-42 {
        fill: #ccc;
      }

      .cls-43 {
        fill: #c6c1be;
      }

      .cls-44 {
        fill: #d66213;
      }

      .cls-45, .cls-27 {
        fill: #d3cdc9;
      }

      .cls-46 {
        fill: #07a385;
      }

      .cls-47 {
        fill: #474747;
      }

      .cls-48 {
        fill: #7a7a7a;
      }

      .cls-49 {
        fill: #4d4d4d;
      }

      .cls-14 {
        stroke-width: .15px;
      }

      .cls-15 {
        stroke-width: 2px;
      }

      .cls-15, .cls-7 {
        stroke: #ccc;
      }

      .cls-16, .cls-17 {
        stroke-width: .24px;
      }

      .cls-18 {
        stroke-width: .08px;
      }

      .cls-19, .cls-20, .cls-23, .cls-10 {
        stroke-width: .25px;
      }

      .cls-20, .cls-22, .cls-23, .cls-25 {
        stroke: #4d4d4d;
      }

      .cls-20, .cls-29 {
        fill: #efecea;
      }

      .cls-21, .cls-22, .cls-25 {
        stroke-width: .5px;
      }

      .cls-4 {
        stroke-width: .36px;
      }

      .cls-4, .cls-8, .cls-10 {
        stroke: #474747;
      }

      .cls-24 {
        stroke-width: .1px;
      }

      .cls-5 {
        stroke: #fff;
        stroke-width: .75px;
      }

      .cls-26 {
        stroke-width: .1px;
      }

      .cls-27 {
        stroke-width: .21px;
      }

      .cls-28 {
        stroke-width: .08px;
      }

      .cls-29 {
        stroke-width: .27px;
      }

      .cls-30 {
        stroke-width: .68px;
      }

      .cls-31 {
        stroke: #7c7c7c;
        stroke-width: .73px;
      }

      .cls-9 {
        stroke-dasharray: 0 8.17;
        stroke-width: 1.02px;
      }

      .cls-50 {
        fill: #666;
        font-family: OpenSans-Semibold, 'Open Sans';
        font-size: 32px;
        font-weight: 600;
      }
    </style>
  </defs>
  <g id="diagram">
    <g>
      <g>
        <g>
          <ellipse class="cls-30" cx="309.33" cy="214.53" rx="26.02" ry="7.91"/>
          <ellipse class="cls-12" cx="719.31" cy="168.9" rx="26.02" ry="5.18"/>
          <ellipse class="cls-12" cx="1086.12" cy="168.9" rx="26.02" ry="5.18"/>
          <ellipse class="cls-21" cx="1362.13" cy="214.53" rx="26.02" ry="4.25"/>
          <ellipse class="cls-21" cx="1746.51" cy="190.12" rx="26.02" ry="4.25"/>
          <g>
            <polygon class="cls-1" points="609.89 276.72 655.85 276.72 655.85 263.57 609.89 276.72"/>
            <polygon class="cls-45" points="572.91 255.5 572.91 276.72 625.07 263.57 689.62 246.39 776.04 222.87 1039.27 143.79 1039.27 133.25 575.36 255.5 572.91 255.5"/>
            <rect class="cls-45" x="106.56" y="255.5" width="466.35" height="21.22"/>
            <polygon class="cls-45" points="1159.35 218.45 775.2 220.73 775.2 220.73 775.2 220.73 776.05 241.68 1162.39 242.57 1162.39 242.57 1278.44 149.02 1278.44 133.25 1159.35 218.45"/>
            <rect class="cls-45" x="1163.15" y="255.78" width="374.7" height="20.95"/>
            <polygon class="cls-43" points="1566.35 220.73 1497.01 133.25 1497.01 149.02 1566.35 235.74 1566.35 235.74 1566.35 220.73"/>
            <rect class="cls-27" x="1566.35" y="220.73" width="396.49" height="15.01"/>
            <polygon class="cls-17" points="582.78 133.25 106.56 192.35 106.56 255.5 572.91 255.5 575.36 255.5 1039.27 133.25 582.78 133.25"/>
            <polygon class="cls-17" points="1470.21 133.25 1303.56 133.25 1163.15 255.78 1537.85 255.78 1470.21 133.25"/>
            <polygon class="cls-35" points="1962.84 220.73 1962.99 195.05 1754.53 133.25 1497.01 133.25 1566.35 220.73 1962.84 220.73"/>
            <polygon class="cls-17" points="1075.44 133.25 1039.27 143.79 775.2 220.73 775.2 220.73 1159.35 218.45 1278.44 133.25 1075.44 133.25"/>
          </g>
          <g>
            <line class="cls-2" x1="106.56" y1="214.53" x2="110.56" y2="214.53"/>
            <path class="cls-3" d="m118.56,214.53h360.47l180.45-44.7h635.93c43.94,0,87.35,9.65,127.16,28.26l35.16,16.44,147.25-16.96c31.2-3.59,62.55-5.73,93.95-6.42l47.59-1.03h191.88"/>
            <line class="cls-2" x1="1942.39" y1="190.12" x2="1946.39" y2="190.12"/>
          </g>
          <path class="cls-9" d="m1457.72,214.53s-880.31-2.09-798.24-44.7"/>
        </g>
        <line class="cls-8" x1="655.85" y1="168.9" x2="655.85" y2="33.47"/>
        <line class="cls-8" x1="1689.77" y1="185.87" x2="1689.77" y2="33.47"/>
        <text class="cls-50" transform="translate(208.48 27.42)"><tspan x="0" y="0" xml:space="preserve"> UX Research</tspan></text>
        <text class="cls-50" transform="translate(1340.45 27.42)"><tspan x="0" y="0">Product Design</tspan></text>
        <text class="cls-50" transform="translate(1053.87 27.42)"><tspan x="0" y="0">Visualization</tspan></text>
        <text class="cls-50" transform="translate(488.95 27.42)"><tspan x="0" y="0">Design and Conceptualization</tspan></text>
        <text class="cls-50" transform="translate(1635.39 27.42)"><tspan x="0" y="0">Collaboration</tspan></text>
        <g>
          <rect class="cls-39" x="228.65" y="161.93" width="5.64" height="45.69" rx="2.82" ry="2.82"/>
          <rect class="cls-39" x="338.08" y="150.25" width="5.64" height="45.69" rx="2.82" ry="2.82"/>
          <rect class="cls-39" x="210.99" y="164.49" width="5.64" height="31.45" rx="2.34" ry="2.34"/>
          <rect class="cls-39" x="323.98" y="150.25" width="5.64" height="31.45" rx="2.34" ry="2.34"/>
          <path class="cls-39" d="m363.19,150.97l-162.04,18.58c-5.36.61-10.42-2.6-12.15-7.72l-21.43-63.66c-2.37-7.04,2.49-14.43,9.88-15.05l159.79-13.44c5-.42,9.68,2.46,11.56,7.11l23.68,58.52c2.84,7.01-1.79,14.8-9.3,15.66Z"/>
          <path class="cls-19" d="m363.19,145.83l-162.04,18.58c-5.36.61-10.42-2.6-12.15-7.72l-21.43-63.66c-2.37-7.04,2.49-14.43,9.88-15.05l159.79-13.44c5-.42,9.68,2.46,11.56,7.11l23.68,58.52c2.84,7.01-1.79,14.8-9.3,15.66Z"/>
        </g>
        <line class="cls-8" x1="309.33" y1="214.53" x2="309.33" y2="33.47"/>
      </g>
      <rect class="cls-20" x="775.2" y="73.63" width="71.1" height="33.01"/>
      <polygon class="cls-39" points="226.68 104.5 213.12 106.86 208.97 96.8 221.37 95.51 226.68 104.5"/>
      <polygon class="cls-39" points="242.3 102.92 228.74 105.28 224.59 95.22 236.99 93.93 242.3 102.92"/>
      <polygon class="cls-39" points="257.92 101.49 244.36 103.85 240.21 93.8 252.61 92.5 257.92 101.49"/>
      <polygon class="cls-39" points="273.1 99.73 259.54 102.09 255.4 92.04 267.79 90.74 273.1 99.73"/>
      <polygon class="cls-39" points="281.95 112.84 268.39 115.2 264.25 105.14 276.65 103.85 281.95 112.84"/>
      <polygon class="cls-39" points="275.62 131.29 262.06 133.65 257.92 123.59 270.31 122.3 275.62 131.29"/>
      <polygon class="cls-39" points="330.36 94.06 316.8 96.42 312.65 86.36 325.05 85.07 330.36 94.06"/>
      <polygon class="cls-39" points="346.93 92.53 333.37 94.89 329.22 84.83 341.62 83.54 346.93 92.53"/>
      <polygon class="cls-39" points="344.51 107.17 330.95 109.53 326.8 99.47 339.2 98.18 344.51 107.17"/>
      <polygon class="cls-44" points="340.9 136.97 327.34 139.32 323.19 129.27 335.59 127.98 340.9 136.97"/>
      <polygon class="cls-46" points="245.37 88.72 231.82 91.08 227.67 81.02 240.07 79.73 245.37 88.72"/>
      <polygon class="cls-46" points="330.36 81.15 316.8 83.51 312.65 73.46 325.05 72.16 330.36 81.15"/>
      <polygon class="cls-39" points="238.75 132.99 225.19 135.35 221.04 125.3 233.44 124 238.75 132.99"/>
      <polygon class="cls-39" points="244.38 146.31 230.82 148.66 226.68 138.61 239.08 137.32 244.38 146.31"/>
      <polygon class="cls-34" points="199.37 108.59 185.81 110.95 181.66 100.9 194.06 99.6 199.37 108.59"/>
      <polygon class="cls-34" points="301.73 95.82 288.17 98.18 284.02 88.12 296.42 86.83 301.73 95.82"/>
      <polygon class="cls-39" points="264.74 114.27 251.18 116.63 247.03 106.57 259.43 105.28 264.74 114.27"/>
      <polygon class="cls-44" points="248.56 117.28 235 119.64 230.86 109.58 243.26 108.29 248.56 117.28"/>
      <polygon class="cls-39" points="233.44 119.94 219.88 122.3 215.74 112.25 228.14 110.95 233.44 119.94"/>
      <g>
        <polygon class="cls-45" points="509.88 129.1 589.91 119.78 589.91 152.72 509.88 165.82 509.88 129.1"/>
        <path class="cls-38" d="m589.79,119.92v32.7l-79.79,13.06v-36.46l79.79-9.3m.25-.28l-80.29,9.35v36.98l80.29-13.14v-33.19h0Z"/>
      </g>
      <rect class="cls-15" x="531.46" y="63.57" width="82.9" height="39.64" rx="5.83" ry="5.83"/>
      <g>
        <path class="cls-16" d="m531.46,143.05v24.86c0,1.07,5.39,1.94,12.04,1.94s12.04-.87,12.04-1.94v-24.86h-24.08Z"/>
        <ellipse class="cls-19" cx="543.5" cy="143.05" rx="12.04" ry="1.94"/>
      </g>
      <g>
        <path class="cls-16" d="m564.91,138.74v23.18c0,1,5.03,1.81,11.23,1.81s11.23-.81,11.23-1.81v-23.18h-22.46Z"/>
        <ellipse class="cls-11" cx="576.14" cy="138.74" rx="11.23" ry="1.81"/>
      </g>
      <g>
        <path class="cls-16" d="m596.21,131.46v23.18c0,1,5.03,1.81,11.23,1.81s11.23-.81,11.23-1.81v-23.18h-22.46Z"/>
        <ellipse class="cls-11" cx="607.44" cy="131.46" rx="11.23" ry="1.81"/>
      </g>
      <g>
        <path class="cls-22" d="m819.8,126.46v29.16c0,1.25,5.47,2.27,12.22,2.27s12.22-1.02,12.22-2.27v-29.16h-24.45Z"/>
        <ellipse class="cls-22" cx="832.03" cy="126.46" rx="12.22" ry="2.27"/>
      </g>
      <g>
        <path class="cls-16" d="m427.21,135.19v23.18c0,1,5.03,1.81,11.23,1.81s11.23-.81,11.23-1.81v-23.18h-22.46Z"/>
        <ellipse class="cls-11" cx="438.44" cy="135.19" rx="11.23" ry="1.81"/>
      </g>
      <g>
        <polygon class="cls-40" points="442.86 161.81 442.86 124.14 509.63 129.11 509.63 165.84 442.86 161.81"/>
        <path class="cls-38" d="m442.99,124.27l66.51,4.95v36.48l-66.51-4.01v-37.42m-.25-.27v37.93l67.01,4.04v-36.98l-67.01-4.99h0Z"/>
      </g>
      <path class="cls-42" d="m539.77,68.91l-.17,27.95c0,.64,1,.64,1,0l.17-27.95c0-.64-1-.64-1,0h0Z"/>
      <path class="cls-42" d="m540.12,97.48c7.55,0,15.1,0,22.65,0,.64,0,.64-1,0-1-7.55,0-15.1,0-22.65,0-.64,0-.64,1,0,1h0Z"/>
      <path class="cls-42" d="m563.27,96.72v-28.21c0-.64-1-.64-1,0v28.21c0,.64,1,.64,1,0h0Z"/>
      <path class="cls-42" d="m539.99,69.27h23.97c.64,0,.64-1,0-1h-23.97c-.64,0-.64,1,0,1h0Z"/>
      <path class="cls-42" d="m539.99,72.7c7.68.01,15.36.03,23.05.04.64,0,.64-1,0-1-7.68-.01-15.36-.03-23.05-.04-.64,0-.64,1,0,1h0Z"/>
      <path class="cls-42" d="m553.01,72.08c-.05,4.02-.04,8.04.04,12.05.01.64,1.01.64,1,0-.08-4.02-.09-8.04-.04-12.05,0-.64-.99-.64-1,0h0Z"/>
      <path class="cls-42" d="m553.5,84.5h9.14c.64,0,.64-1,0-1h-9.14c-.64,0-.64,1,0,1h0Z"/>
      <path class="cls-42" d="m541.87,74.07v2.78c0,.26.23.51.5.5s.5-.22.5-.5v-2.78c0-.26-.23-.51-.5-.5s-.5.22-.5.5h0Z"/>
      <path class="cls-42" d="m542.64,77.35h9.01c.64,0,.64-1,0-1h-9.01c-.64,0-.64,1,0,1h0Z"/>
      <path class="cls-42" d="m552,76.85c.06-.8.04-1.6-.06-2.39-.02-.14-.04-.25-.15-.35-.09-.09-.23-.15-.35-.15-.24.01-.54.22-.5.5.11.79.13,1.59.06,2.39-.02.26.25.51.5.5.29-.01.48-.22.5-.5h0Z"/>
      <path class="cls-42" d="m551.38,73.84h-9.01c-.64,0-.64,1,0,1h9.01c.64,0,.64-1,0-1h0Z"/>
      <path class="cls-42" d="m542.27,78.84v5.17c0,.64,1,.64,1,0v-5.17c0-.64-1-.64-1,0h0Z"/>
      <path class="cls-42" d="m542.9,84.64h8.34c.64,0,.64-1,0-1h-8.34c-.64,0-.64,1,0,1h0Z"/>
      <path class="cls-42" d="m551.88,84v-5.56c0-.64-1-.64-1,0v5.56c0,.64,1,.64,1,0h0Z"/>
      <path class="cls-42" d="m542.5,79.07h9.01c.64,0,.64-1,0-1h-9.01c-.64,0-.64,1,0,1h0Z"/>
      <path class="cls-42" d="m540.52,87.68c7.51,0,15.01,0,22.52,0,.64,0,.64-1,0-1-7.51,0-15.01,0-22.52,0-.64,0-.64,1,0,1h0Z"/>
      <path class="cls-42" d="m547.17,87.45v9.27c0,.64,1,.64,1,0v-9.27c0-.64-1-.64-1,0h0Z"/>
      <path class="cls-42" d="m553.26,87.45v9.4c0,.64,1,.64,1,0v-9.4c0-.64-1-.64-1,0h0Z"/>
      <path class="cls-42" d="m557.34,95.5h2.25c.26,0,.51-.23.5-.5s-.22-.5-.5-.5h-2.25c-.26,0-.51.23-.5.5s.22.5.5.5h0Z"/>
      <path class="cls-42" d="m559.4,79.97c.54-.88,1.2-1.66,1.96-2.35.37-.33.76-.63,1.17-.9.25-.16,1.29-.96,1.59-.7.08.07.11.42.13.52.05.3.1.6.15.9.1.53.21,1.05.34,1.57.24.97.46,2.19,1.06,3.01,1.16,1.58,3.3.48,4.67-.14,2.18-.99,4.34-2.03,6.47-3.11.57-.29.07-1.15-.5-.86-2.21,1.12-4.43,2.19-6.69,3.21-.77.35-2.02,1.07-2.86.57-.47-.28-.59-.92-.75-1.4-.19-.58-.35-1.17-.49-1.77s-.27-1.19-.37-1.8c-.07-.41-.09-.85-.31-1.22-.49-.87-1.4-.54-2.1-.17-1.79.96-3.28,2.4-4.35,4.12-.34.55.52,1.05.86.5h0Z"/>
      <path class="cls-42" d="m558.13,75.53l.09,2.18.05,1.05c.01.34-.01.72.07,1.06.1.41.49.61.9.53.28-.06.53-.17.81-.2.59-.07,1.21.02,1.75.28.24.11.54.07.68-.18.13-.22.07-.57-.18-.68-.54-.26-1.12-.41-1.72-.43-.3-.01-.6.02-.89.07-.13.02-.25.05-.37.08-.11.03-.24.1-.35.09l.25.07c.18.08.05.23.08.11.02-.08,0-.18-.01-.26l-.02-.52-.05-1.09-.09-2.14c-.03-.64-1.03-.64-1,0h0Z"/>
      <path class="cls-42" d="m576.7,75.66v5.17c0,.64,1,.64,1,0v-5.17c0-.64-1-.64-1,0h0Z"/>
      <path class="cls-42" d="m577.2,81.33h21.46c.64,0,.64-1,0-1h-21.46c-.64,0-.64,1,0,1h0Z"/>
      <path class="cls-42" d="m599.69,80.69v-3.97c0-.64-1-.64-1,0v3.97c0,.64,1,.64,1,0h0Z"/>
      <path class="cls-42" d="m577.47,76.21c3.66,0,7.33,0,10.99,0h5.49c.87,0,1.75,0,2.62,0h1.37c.25,0,.5,0,.75,0h.25c.27.08.35-.07.24-.44l.39.05-.09-.04c-.57-.29-1.08.58-.5.86s1.24-.23,1.01-.87c-.27-.76-1.43-.56-2.04-.56-2.29,0-4.58,0-6.87,0-4.54,0-9.07,0-13.61-.01-.64,0-.64,1,0,1h0Z"/>
      <path class="cls-42" d="m601.71,77.33c.43.07.84.04,1.28-.04.34-.07.68-.18,1.03-.19.48-.02,1.03.13.96.71-.08.62-.56,1.09-.92,1.56-.49.63-.86,1.31-.7,2.13.05.27.37.42.62.35.28-.08.4-.35.35-.62-.13-.66.56-1.28.92-1.75.46-.59.86-1.36.7-2.13s-.9-1.19-1.65-1.25c-.38-.03-.77.05-1.15.13s-.78.2-1.16.14c-.27-.04-.54.07-.62.35-.07.24.08.57.35.62h0Z"/>
      <path class="cls-42" d="m603.96,83.84c.64,0,.64-1,0-1s-.64,1,0,1h0Z"/>
      <path class="cls-42" d="m584.78,85.59v10.99c0,.64,1,.64,1,0v-10.99c0-.64-1-.64-1,0h0Z"/>
      <path class="cls-42" d="m585.28,85.38c4.24.07,8.48.08,12.72.04.64,0,.64-1.01,0-1-4.24.05-8.48.04-12.72-.04-.64-.01-.64.99,0,1h0Z"/>
      <path class="cls-42" d="m597.37,84.93v12.05c0,.64,1,.64,1,0v-12.05c0-.64-1-.64-1,0h0Z"/>
      <path class="cls-42" d="m585.15,97.92l12.45-.18c.64,0,.64-1.01,0-1l-12.45.18c-.64,0-.64,1.01,0,1h0Z"/>
      <path class="cls-42" d="m587.94,88.99c.06-.02.11-.03.17-.05,0,0,.08-.02.02,0-.06.01.03,0,.04,0,.05,0,.1,0,.15,0,.03,0,.06,0,.09,0,.1,0-.04-.01.02,0,.11.03.21.05.31.09-.09-.03.03.02.06.03.06.03.11.07.17.1-.08-.05.03.02.05.04.04.03.07.07.11.11.06.07.02.02,0,0,.02.02.03.05.05.07.03.05.06.1.09.15.04.09,0,.02,0,0,0,.03.02.06.03.08.02.05.03.1.04.15,0,.02.01.11,0,.04,0-.06,0,.01,0,.02,0,.07,0,.13,0,.2,0,.01,0,.11,0,.04,0-.06,0,.01,0,.02-.01.06-.02.12-.04.17,0,.03-.02.06-.03.08,0,0-.03.08,0,.02.02-.06-.01.03-.02.04-.02.03-.03.07-.05.1-.02.03-.03.05-.05.07,0,0-.05.06-.01.02.04-.05-.02.02-.03.03-.02.02-.04.04-.06.06-.02.02-.03.03-.05.05.06-.05,0,0-.02,0,.02,0,.05-.01.07-.02h.04s-.06,0-.03,0c.05.02-.11-.08-.04-.02-.05-.04-.09-.09-.14-.14.05.06-.04-.06-.05-.08-.04-.06-.08-.12-.11-.19-.03-.05-.05-.1-.08-.15-.01-.02-.02-.04-.03-.07.03.07,0,0,0-.02-.05-.12-.09-.25-.12-.37-.02-.07-.03-.14-.04-.22,0-.06,0,0,0,.01,0-.04,0-.08-.01-.12-.01-.14-.01-.28,0-.42,0-.03,0-.06,0-.1.01-.15-.01.05,0-.04.01-.07.03-.14.04-.22.03-.14.08-.28.14-.42.1-.24-.11-.56-.35-.62-.29-.07-.51.09-.62.35-.27.64-.3,1.37-.14,2.04s.54,1.46,1.21,1.71c.79.3,1.43-.62,1.56-1.29s-.03-1.38-.52-1.87c-.53-.53-1.37-.76-2.09-.52-.25.08-.43.35-.35.62.08.25.35.43.62.35h0Z"/>
      <path class="cls-42" d="m588.47,88.78c-2.12-.1-4.16.46-6.17,1.05s-4.06,1.12-6.16,1.46c-4.33.71-8.73.83-13.11.95l.35.85c1.19-.97,2.39-1.94,3.58-2.91.5-.41-.21-1.11-.71-.71-1.19.97-2.39,1.94-3.58,2.91-.34.28-.06.87.35.85,4.31-.12,8.64-.26,12.91-.91,2.1-.32,4.15-.8,6.18-1.4s4.16-1.25,6.34-1.15c.64.03.64-.97,0-1h0Z"/>
      <path class="cls-42" d="m563.05,92.08c1.32,1.15,2.54,2.41,3.64,3.78.17.21.53.18.71,0,.21-.21.17-.5,0-.71-1.1-1.36-2.32-2.63-3.64-3.78-.2-.18-.51-.2-.71,0-.18.18-.2.53,0,.71h0Z"/>
      <path class="cls-42" d="m592.09,89.24c1.03-1.97,1.86-4.05,1.51-6.31s-1.59-4.09-2.79-5.88c-.24-.36-.78-.31-.91.12-.32,1.06-.78,2.05-1.39,2.98-.35.54.52,1.04.86.5.65-1,1.14-2.08,1.49-3.22l-.91.12c1.09,1.62,2.22,3.32,2.62,5.26.43,2.1-.39,4.09-1.34,5.92-.3.57.57,1.08.86.5h0Z"/>
      <path class="cls-42" d="m590.32,77.76c1.24-.07,2.48-.02,3.71.14.27.04.5-.25.5-.5,0-.3-.23-.46-.5-.5-1.23-.16-2.47-.21-3.71-.14-.27.01-.5.22-.5.5,0,.26.23.51.5.5h0Z"/>
      <g>
        <polygon class="cls-22" points="731.52 143.83 731.52 111.24 902.9 112.96 902.9 147.59 936.35 140.34 936.35 105.31 772.2 105.31 725.5 108.93 725.5 143.56 731.52 143.83"/>
        <rect class="cls-22" x="896.28" y="112.89" width="6.62" height="34.7"/>
        <polygon class="cls-25" points="731.52 143.83 776.04 135.11 776.04 111.69 731.52 111.24 731.52 143.83"/>
        <polygon class="cls-25" points="731.52 111.24 731.52 115.34 896.28 116.7 896.28 112.89 731.52 111.24"/>
      </g>
      <path class="cls-23" d="m864.86,107.62l22.04,3.16c2.1.3,4.23-.12,6.12-1.2l3.33-1.91c.09-.05.07-.21-.04-.22l-17.83-1.49s-.01,0-.02,0l-13.6,1.42c-.12.01-.12.22,0,.23Z"/>
      <rect class="cls-23" x="880.44" y="95.41" width="4.32" height="12.94"/>
      <g>
        <g>
          <path class="cls-41" d="m906.87,69.4l.51.79c.31.49.48,1.07.48,1.67v25c0,.62-.18,1.21-.51,1.72l-.47.71v-29.88Z"/>
          <path class="cls-49" d="m907,69.83l.28.43c.3.47.46,1.03.46,1.6v25c0,.6-.17,1.17-.49,1.65l-.24.36v-29.04m-.25-.86v30.72l.7-1.05c.35-.52.54-1.15.54-1.79v-25c0-.62-.17-1.22-.5-1.73l-.74-1.15h0Z"/>
        </g>
        <g>
          <path class="cls-41" d="m904.38,100.63l-47.05-2.67c-1.46-.08-2.6-1.47-2.6-3.17v-23.61c0-1.75,1.22-3.17,2.73-3.17h47.05c1.5,0,2.73,1.42,2.73,3.17v26.28c0,.85-.29,1.65-.81,2.25-.52.59-1.2.92-1.92.92h-.13Z"/>
          <path class="cls-49" d="m904.51,68.13c1.44,0,2.6,1.37,2.6,3.05v26.28c0,1.68-1.17,3.05-2.6,3.05-.04,0-.09,0-.13,0l-47.05-2.67c-1.39-.08-2.48-1.42-2.48-3.04v-23.61c0-1.68,1.17-3.05,2.6-3.05h47.05m0-.25h-47.05c-1.58,0-2.85,1.48-2.85,3.3v23.61c0,1.76,1.19,3.21,2.71,3.29l47.05,2.67s.1,0,.14,0c1.57,0,2.85-1.47,2.85-3.3v-26.28c0-1.82-1.28-3.3-2.85-3.3h0Z"/>
        </g>
        <path class="cls-33" d="m856.99,92.17v-18.24c0-1.82,1.28-3.3,2.85-3.3h42.29c1.58,0,2.85,1.48,2.85,3.3v20.64c0,1.88-1.36,3.39-2.99,3.29l-42.29-2.4c-1.52-.09-2.71-1.54-2.71-3.29Z"/>
      </g>
      <g>
        <g>
          <path class="cls-41" d="m1144.12,112.17c-.33-.52-.5-1.12-.5-1.75v-26.24c0-.65.19-1.28.54-1.81l.51-.76v31.41l-.54-.85Z"/>
          <path class="cls-49" d="m1144.53,82.02v30.57l-.31-.49c-.32-.5-.49-1.08-.49-1.69v-26.24c0-.63.18-1.23.52-1.74l.28-.42m.25-.82l-.74,1.1c-.37.55-.56,1.2-.56,1.88v26.24c0,.65.18,1.28.52,1.82l.77,1.21v-32.25h0Z"/>
        </g>
        <g>
          <path class="cls-41" d="m1147.13,114.47c-1.58,0-2.87-1.5-2.87-3.34v-27.59c0-1.84,1.29-3.34,2.87-3.34h.14s46.91-.69,46.91-.69c1.52.09,2.72,1.55,2.72,3.33v27.11c0,1.84-1.29,3.34-2.87,3.34l-46.9,1.18Z"/>
          <path class="cls-49" d="m1194.17,79.63c1.46.09,2.61,1.5,2.61,3.21v27.11c0,1.77-1.23,3.21-2.75,3.21l-46.89,1.18c-1.51,0-2.75-1.44-2.75-3.21v-27.59c0-1.77,1.23-3.21,2.74-3.21.04,0,.09,0,.15,0l46.89-.7m0-.25l-46.9.7c-.05,0-.1,0-.15,0-1.64,0-2.99,1.54-2.99,3.46v27.59c0,1.91,1.34,3.46,3,3.46l46.9-1.18c1.65,0,3-1.55,3-3.46v-27.11c0-1.85-1.25-3.37-2.85-3.46h0Z"/>
        </g>
        <g>
          <path class="cls-41" d="m1149.63,111.58c-1.58,0-2.87-1.5-2.87-3.34v-21.67c0-1.84,1.29-3.34,2.87-3.34h.14s41.9-.98,41.9-.98c1.52.09,2.72,1.55,2.72,3.33v21.47c0,1.84-1.29,3.34-2.87,3.34l-41.9,1.18Z"/>
          <path class="cls-49" d="m1191.67,82.38c1.46.09,2.6,1.5,2.6,3.21v21.47c0,1.77-1.23,3.21-2.75,3.21l-41.89,1.18c-1.51,0-2.75-1.44-2.75-3.21v-21.67c0-1.77,1.23-3.21,2.74-3.21.05,0,.09,0,.16,0l41.88-.98m0-.25l-41.89.98c-.05,0-.1,0-.15,0-1.64,0-2.99,1.54-2.99,3.46v21.67c0,1.91,1.34,3.46,3,3.46l41.89-1.18c1.65,0,3-1.55,3-3.46v-21.47c0-1.85-1.25-3.37-2.85-3.46h0Z"/>
        </g>
      </g>
      <g>
        <g>
          <path class="cls-41" d="m1226.68,97.33l.34.51c.27.41.42.89.42,1.39v20.43c0,.48-.13.95-.39,1.35l-.37.58v-24.27Z"/>
          <path class="cls-49" d="m1226.8,97.74l.11.17c.26.39.4.84.4,1.32v20.43c0,.46-.13.9-.37,1.28l-.14.22v-23.43m-.25-.82v25.11l.6-.94c.27-.42.41-.91.41-1.42v-20.43c0-.52-.15-1.04-.44-1.46l-.57-.86h0Z"/>
        </g>
        <g>
          <path class="cls-41" d="m1188.21,121.87c-1.22,0-2.21-1.15-2.21-2.57v-21.11c0-1.37.92-2.5,2.1-2.57l36.5.54h.12c1.22,0,2.21,1.15,2.21,2.57v21.48c0,1.42-.99,2.57-2.21,2.57l-36.51-.92Z"/>
          <path class="cls-49" d="m1188.1,95.75l36.52.54s.07,0,.1,0c1.15,0,2.08,1.1,2.08,2.45v21.48c0,1.35-.93,2.45-2.08,2.45l-36.52-.92c-1.15,0-2.08-1.1-2.08-2.45v-21.11c0-1.3.87-2.37,1.97-2.44m0-.25c-1.24.07-2.22,1.26-2.22,2.69v21.11c0,1.49,1.04,2.7,2.33,2.7l36.51.92c1.29,0,2.33-1.21,2.33-2.7v-21.48c0-1.5-1.05-2.7-2.33-2.7-.04,0-.08,0-.12,0l-36.51-.54h0Z"/>
        </g>
        <g>
          <path class="cls-41" d="m1190.16,119.62c-1.22,0-2.21-1.15-2.21-2.57v-16.72c0-1.37.92-2.5,2.1-2.57l32.61.76h.12c1.22,0,2.21,1.15,2.21,2.57v16.87c0,1.42-.99,2.57-2.21,2.57l-32.62-.92Z"/>
          <path class="cls-49" d="m1190.05,97.89l32.63.76s.07,0,.1,0c1.15,0,2.08,1.1,2.08,2.45v16.87c0,1.35-.93,2.45-2.08,2.45l-32.63-.92c-1.15,0-2.08-1.1-2.08-2.45v-16.72c0-1.3.87-2.37,1.97-2.44m0-.25c-1.24.07-2.22,1.26-2.22,2.69v16.72c0,1.49,1.04,2.7,2.33,2.7l32.62.92c1.29,0,2.33-1.21,2.33-2.7v-16.87c0-1.5-1.05-2.7-2.33-2.7-.04,0-.08,0-.12,0l-32.62-.76h0Z"/>
        </g>
      </g>
      <polygon class="cls-23" points="782.29 109.6 809.61 108.6 798.66 106.64 782.29 107.23 782.29 109.6"/>
      <polygon class="cls-23" points="782.29 106.6 782.29 91.08 798.69 91.08 798.69 106.12 782.29 106.6"/>
      <rect class="cls-20" x="809.61" y="80.89" width="12.41" height="17.15" rx=".79" ry=".79"/>
      <ellipse class="cls-20" cx="816.23" cy="82.55" rx=".42" ry=".48"/>
      <rect class="cls-20" x="824.72" y="80.89" width="12.41" height="17.15" rx=".79" ry=".79"/>
      <ellipse class="cls-20" cx="831.35" cy="82.55" rx=".42" ry=".48"/>
      <rect class="cls-20" x="795.45" y="76.58" width="7.32" height="10.12" rx=".47" ry=".47"/>
      <rect class="cls-20" x="803.42" y="76.58" width="3.66" height="5.06" rx=".23" ry=".23"/>
      <rect class="cls-20" x="803.42" y="82.55" width="3.66" height="5.06" rx=".23" ry=".23"/>
      <rect class="cls-20" x="803.42" y="88.55" width="3.66" height="5.06" rx=".23" ry=".23"/>
      <rect class="cls-20" x="785.74" y="76.58" width="3.66" height="5.06" rx=".23" ry=".23"/>
      <ellipse class="cls-20" cx="799.36" cy="77.56" rx=".25" ry=".28"/>
      <g>
        <path class="cls-39" d="m1052.01,136.16l-14.61-57.79c-.8-3.16-3.64-5.37-6.9-5.37h-46.57c-4.45,0-7.81,4.04-6.99,8.42l14.74,78.96c.85,4.55,5.74,7.09,9.95,5.17l46.44-21.18c3.13-1.43,4.79-4.88,3.95-8.22Z"/>
        <rect class="cls-39" x="975.22" y="119.32" width="2.84" height="70.12" rx="1.42" ry="1.42" transform="translate(86.07 -275.2) rotate(16.77)"/>
        <rect class="cls-39" x="998.22" y="137.19" width="2.84" height="70.12" rx="1.42" ry="1.42" transform="translate(84.32 609.46) rotate(-35.31)"/>
        <rect class="cls-39" x="1029.94" y="119.32" width="2.84" height="70.12" rx="1.42" ry="1.42" transform="translate(100.49 624.51) rotate(-35.31)"/>
        <rect class="cls-39" x="992.91" y="106.7" width="2.84" height="70.12" rx="1.42" ry="1.42" transform="translate(83.18 -280.84) rotate(16.77)"/>
        <path class="cls-29" d="m1053.97,133.79l-14.61-57.79c-.8-3.16-3.64-5.37-6.9-5.37h-46.57c-4.45,0-7.81,4.04-6.99,8.42l14.74,78.96c.85,4.55,5.74,7.09,9.95,5.17l46.44-21.18c3.13-1.43,4.79-4.88,3.95-8.22Z"/>
        <polygon class="cls-33" points="994.33 104.34 1000.75 143.65 1033.73 133.43 1026 102.42 994.33 104.34"/>
        <path class="cls-36" d="m1010.92,129.31c3.04.28,6.11-.73,8.41-2.74.24-.21-.11-.56-.35-.35-2.2,1.93-5.14,2.86-8.05,2.6-.32-.03-.32.47,0,.5h0Z"/>
        <path class="cls-36" d="m1005.13,122.71c1.31.07,2.64-.1,3.88-.52.46-.15.26-.88-.2-.72-1.19.4-2.43.56-3.68.49-.48-.03-.48.72,0,.75h0Z"/>
        <path class="cls-36" d="m1004.65,122.1c.37,2.01.8,4.01,1.31,5.98.25.97.52,1.93.8,2.89.25.85.47,1.76.84,2.57.6,1.32,2.22,1.96,3.56,2.25s2.82.25,4.17-.11c1.58-.43,3.02-1.3,4.1-2.53.32-.36-.21-.89-.53-.53-2.27,2.6-6.34,3.44-9.41,1.77-.44-.24-.85-.52-1.12-.96s-.39-1.01-.54-1.5c-.33-1.07-.65-2.15-.94-3.23-.6-2.24-1.11-4.51-1.53-6.8-.09-.47-.81-.27-.72.2h0Z"/>
        <path class="cls-36" d="m1019.47,132.95c-.15-1.64-.41-3.28-.79-4.88-.07-.31-.56-.18-.48.13.37,1.56.62,3.15.77,4.75.03.32.53.32.5,0h0Z"/>
        <path class="cls-36" d="m1004.57,119.58l-.32-3.67c-.05-.56-.16-1.16-.14-1.72.02-.52.7-.9,1.1-1.15.85-.53,1.92-.93,2.94-.92,1.2.02,1.56,1.67,1.61,2.63.02.32.52.32.5,0-.03-.62-.16-1.22-.41-1.79-.22-.5-.5-1.03-1.04-1.23s-1.18-.1-1.73.02c-.58.12-1.15.33-1.68.6s-1.03.6-1.44,1.01c-.47.47-.34,1.02-.29,1.63l.4,4.59c.03.32.53.32.5,0h0Z"/>
        <path class="cls-36" d="m1005.04,111.43c0-.48,0-.96,0-1.44v-.04s0,.03,0-.02c-.02.03-.01.02,0-.02,0,.01,0,.02-.02.02.05-.04.1-.05.17-.08.23-.09.45-.18.68-.27s.44-.18.65-.27c.1-.04.21-.09.31-.13.03-.01.06-.02.09-.03.09-.02.05-.03-.1-.04-.04-.02-.07-.05-.08-.08-.01-.03-.01-.02,0,.02,0-.04,0-.04,0,0,0,.03,0,.06,0,.08,0,.05,0,.1,0,.16,0,.12,0,.24,0,.36,0,.24,0,.48,0,.73,0,.2.17.38.38.38s.38-.17.38-.38c0-.44.02-.89,0-1.33,0-.23-.08-.46-.29-.58-.24-.14-.48-.04-.71.06-.42.17-.84.34-1.26.51-.2.08-.44.15-.62.27-.22.15-.32.36-.34.62-.02.24,0,.48,0,.71v.78c0,.2.18.38.38.38s.38-.17.38-.38h0Z"/>
        <path class="cls-36" d="m1021.05,125.77c.8-.21,1.6-.43,2.4-.64.53-.14,1.45-.4,1.83.16s-.95,1.1-1.31,1.26c-.63.28-1.4.56-2.11.48-.34-.04-.67-.19-.84-.5-.16-.29-.18-.65-.03-.95s-.29-.54-.43-.25c-.35.69-.13,1.59.56,1.99.77.44,1.78.17,2.56-.11.47-.17.93-.38,1.36-.64.32-.19.67-.44.78-.82.11-.4-.09-.78-.41-1.01-.34-.24-.77-.3-1.18-.26-.51.05-1.01.21-1.5.34l-1.81.49c-.31.08-.18.57.13.48h0Z"/>
        <path class="cls-36" d="m1020.49,126.7c-.05,1.02.38,1.95.88,2.81.47.8.92,1.55,1.92,1.65.87.09,1.85.04,2.49-.63.54-.57.77-1.37.94-2.12l-.36.28c1.71.15,3.07-1.93,2.49-3.48-.26-.7-.99-1.2-1.75-1.07-.87.14-1.21,1.03-1.21,1.81,0,.48.75.48.75,0s.16-1.13.76-1.08c.52.05.82.54.84,1.02.05,1.02-.79,2.14-1.87,2.05-.16-.01-.33.13-.36.28-.13.56-.27,1.16-.62,1.64-.46.62-1.24.63-1.96.57-.81-.06-1.14-.83-1.5-1.47-.4-.7-.72-1.44-.68-2.26.02-.48-.73-.48-.75,0h0Z"/>
        <path class="cls-36" d="m1004.28,119.12c-.48-.04-1.77-.14-1.83.57-.03.37.21.83.32,1.18.14.44.27.88.41,1.31.53,1.73,1.07,3.46,1.6,5.18.14.46.87.26.72-.2-.45-1.46-.9-2.92-1.35-4.38-.23-.73-.45-1.46-.68-2.19-.05-.15-.09-.29-.14-.44-.03-.1-.06-.19-.09-.29-.03-.23-.09-.2-.18.08,0,0,.58-.09.63-.09.2-.01.39,0,.59.01.48.04.48-.71,0-.75h0Z"/>
        <path class="cls-36" d="m1004.58,127.42c.3.81.75,1.55,1.34,2.19.19.21.58.21.77,0,.21-.22.21-.55,0-.77-.06-.07-.13-.14-.19-.21-.03-.03-.06-.07-.08-.1-.01-.02-.03-.03-.04-.05-.04-.06.07.09.02.03-.11-.15-.22-.31-.32-.47s-.18-.32-.27-.48c-.04-.08-.08-.16-.11-.24-.04-.09.03.09,0,.02,0-.02-.02-.04-.03-.06-.02-.05-.04-.09-.05-.14-.05-.14-.12-.25-.25-.32-.12-.07-.29-.1-.42-.05-.26.08-.49.38-.38.67h0Z"/>
        <polygon class="cls-39" points="1006.17 87.61 1008.31 100.1 1035.83 98.93 1033.29 87.61 1006.17 87.61"/>
        <polygon class="cls-39" points="989.58 81.08 990.89 87.61 997.21 86.74 995.63 81.08 989.58 81.08"/>
        <polygon class="cls-39" points="994.33 85.16 995.64 91.69 1001.96 90.83 1000.38 85.16 994.33 85.16"/>
        <polygon class="cls-39" points="1037.6 113.56 1038.92 120.08 1045.24 119.22 1043.66 113.56 1037.6 113.56"/>
        <polygon class="cls-39" points="1039.97 121.31 1041.29 127.83 1047.61 126.97 1046.03 121.31 1039.97 121.31"/>
        <polygon class="cls-39" points="1042.42 129.06 1043.74 135.58 1050.06 134.72 1048.48 129.06 1042.42 129.06"/>
        <line class="cls-5" x1="1012.09" y1="127.28" x2="1007.47" y2="116.22"/>
        <line class="cls-5" x1="1016.01" y1="113.11" x2="1007.47" y2="116.22"/>
        <line class="cls-5" x1="1019.58" y1="123.37" x2="1016.01" y2="113.11"/>
        <line class="cls-5" x1="1012.09" y1="127.28" x2="1019.58" y2="123.37"/>
      </g>
      <g>
        <rect class="cls-40" x="1112.26" y="132.15" width="100.26" height="27.65"/>
        <path class="cls-38" d="m1212.4,132.28v27.4h-100.01v-27.4h100.01m.25-.25h-100.51v27.9h100.51v-27.9h0Z"/>
      </g>
      <g>
        <polygon class="cls-45" points="1212.77 132.12 1232.23 126.91 1232.23 148.94 1212.77 159.71 1212.77 132.12"/>
        <path class="cls-38" d="m1232.11,127.07v21.8l-19.21,10.63v-27.28l19.21-5.15m.25-.33l-19.71,5.28v27.9l19.71-10.91v-22.27h0Z"/>
      </g>
      <g>
        <polygon class="cls-32" points="1114.06 131.9 1152.56 126.87 1231.41 126.87 1212.63 131.9 1114.06 131.9"/>
        <path class="cls-48" d="m1230.46,127l-17.84,4.78h-96.64l36.57-4.78h77.91m1.9-.25h-79.81l-40.41,5.28h100.51l19.71-5.28h0Z"/>
      </g>
      <rect class="cls-47" x="651.93" y="164.99" width="7.83" height="7.83"/>
      <rect class="cls-47" x="305.42" y="210.62" width="7.83" height="7.83"/>
      <rect class="cls-47" x="1146.21" y="164.99" width="7.83" height="7.83"/>
      <rect class="cls-47" x="1453.8" y="210.62" width="7.83" height="7.83"/>
      <polygon class="cls-39" points="1326.01 163.89 1435.36 163.89 1419.93 120.22 1351.11 120.22 1326.01 163.89"/>
      <g>
        <polygon class="cls-32" points="1326.23 160.86 1351.18 117.44 1419.84 117.44 1435.18 160.86 1326.23 160.86"/>
        <path class="cls-48" d="m1419.75,117.56l15.25,43.17h-108.56l24.81-43.17h68.5m.18-.25h-68.82l-25.1,43.67h109.34l-15.43-43.67h0Z"/>
      </g>
      <rect class="cls-47" x="1685.85" y="186.07" width="7.83" height="7.83"/>
      <rect class="cls-39" x="1338.54" y="162" width="5.64" height="39.95" rx="2.64" ry="2.64"/>
      <rect class="cls-39" x="1420.21" y="162" width="5.64" height="39.95" rx="2.64" ry="2.64"/>
      <polygon class="cls-37" points="1380.68 118.51 1380.68 136.27 1394.79 114.79 1393.49 100.29 1380.68 118.51"/>
      <polygon class="cls-33" points="1412.12 114.27 1394.79 114.79 1380.68 136.27 1410.57 133.68 1412.12 114.27"/>
      <polygon class="cls-32" points="1393.49 100.29 1405.39 100.29 1412.12 114.27 1394.79 114.79 1393.49 100.29"/>
      <polygon class="cls-40" points="1373.19 134.19 1351.54 136.27 1357.11 153.05 1383.48 147.72 1373.19 134.19"/>
      <polygon class="cls-40" points="1351.54 136.27 1347.31 142.06 1353.31 158.13 1357.11 153.05 1351.54 136.27"/>
      <polygon class="cls-39" points="1383.48 147.72 1383.48 151.62 1353.31 158.13 1357.11 153.05 1383.48 147.72"/>
      <line class="cls-8" x1="1457.72" y1="214.53" x2="1457.72" y2="33.2"/>
      <g>
        <path class="cls-24" d="m1353.09,112.46v13.4c0,.58,1.45,1.04,3.25,1.04s3.25-.47,3.25-1.04v-13.4h-6.49Z"/>
        <ellipse class="cls-26" cx="1356.34" cy="112.46" rx="3.25" ry="1.04"/>
      </g>
      <g>
        <path class="cls-18" d="m1365.15,113.16v8.91c0,.38,1.45.69,3.25.69s3.25-.31,3.25-.69v-8.91h-6.49Z"/>
        <ellipse class="cls-28" cx="1368.4" cy="113.16" rx="3.25" ry=".69"/>
      </g>
      <polygon class="cls-10" points="1347.31 142.06 1353.31 158.13 1383.48 151.62 1383.48 147.72 1373.19 134.19 1351.54 136.27 1347.31 142.06"/>
      <polygon class="cls-4" points="1380.68 118.51 1380.68 136.27 1410.57 133.68 1412.12 114.27 1405.39 100.29 1393.49 100.29 1380.68 118.51"/>
      <ellipse class="cls-33" cx="1794.4" cy="102.7" rx="3.3" ry="3.89"/>
      <line class="cls-8" x1="1150.13" y1="168.9" x2="1150.13" y2="31.86"/>
      <g>
        <path class="cls-13" d="m1409.95,119.62v21.18c0,.91,2.3,1.65,5.13,1.65s5.13-.74,5.13-1.65v-21.18h-10.26Z"/>
        <ellipse class="cls-14" cx="1415.08" cy="119.62" rx="5.13" ry="1.65"/>
      </g>
      <g>
        <path class="cls-13" d="m1416.82,128.56v21.18c0,.91,2.3,1.65,5.13,1.65s5.13-.74,5.13-1.65v-21.18h-10.26Z"/>
        <ellipse class="cls-14" cx="1421.95" cy="128.56" rx="5.13" ry="1.65"/>
      </g>
      <circle class="cls-31" cx="1750" cy="99.31" r="6.81"/>
      <circle class="cls-31" cx="1720.49" cy="88.47" r="6.81"/>
      <circle class="cls-31" cx="1795.25" cy="115.96" r="6.81"/>
      <circle class="cls-31" cx="1826.62" cy="103.21" r="7.71"/>
      <circle class="cls-33" cx="1793.84" cy="88.47" r="5.22"/>
      <circle class="cls-33" cx="1839.96" cy="101.39" r="5.22"/>
      <path class="cls-31" d="m1734.54,136.53l4.7,43.6s4.09,2.2,7.08.94l7.85-42.57"/>
      <path class="cls-6" d="m1772.52,79.19v38.73c0,2.4,1.56,4.51,3.85,5.22l74.06,15.62c3.51,1.08,7.07-1.54,7.07-5.22v-46.03c0-2.76-2.06-5.09-4.81-5.42l-74.06-8.9c-3.25-.39-6.11,2.15-6.11,5.42v.59Z"/>
      <polygon class="cls-7" points="1834.33 92.67 1834.33 87.01 1849.65 88.84 1849.65 94.47 1834.33 92.67"/>
      <path class="cls-31" d="m1713.68,163.88s3.66,2.78,6.81,1.3,1.66-1.3,1.66-1.3l2.59-33.68s5,.73,6.66-1.21-8.86-32.1-8.86-32.1c0,0-5.02.74-6.87,0s-10.55,29.05-9.81,30.16,5.37,2.41,6.29,2.59,1.52,34.23,1.52,34.23Z"/>
      <circle class="cls-31" cx="1644.9" cy="83.37" r="6.55"/>
      <path class="cls-31" d="m1638.35,155.93s3.53,2.67,6.55,1.25,1.6-1.25,1.6-1.25l2.49-32.41s4.81.71,6.41-1.16-8.53-30.89-8.53-30.89c0,0-4.83.71-6.61,0s-10.15,27.96-9.44,29.03,5.16,2.31,6.05,2.49,1.47,32.94,1.47,32.94Z"/>
      <path class="cls-31" d="m1788.94,209.46s4.6,3.49,8.55,1.63c3.95-1.86,2.09-1.63,2.09-1.63l3.25-42.29s6.27.92,8.37-1.51-11.13-40.31-11.13-40.31c0,0-6.3.93-8.62,0s-13.25,36.48-12.32,37.88,6.74,3.02,7.9,3.25,1.91,42.99,1.91,42.99Z"/>
      <path class="cls-31" d="m1733.38,135.12s6.79-25.25,9.82-25.68,12.17-1.02,12.17-1.02l23.72-2.3s.47.12,4.37-1.47,9.49-3.26,9.49-3.26c0,0,1.25,1.67,0,1.67s-2.55,3.06-2.55,3.06l-3.8-.64-7.9,3.4-14.59,3.06s-8.24,2.13-8.47,6.31,0,19.29,0,19.29c0,0-12.93,10.03-22.26-2.42Z"/>
      <path class="cls-31" d="m1843.55,111.13l-1.38-7.55-2.83-.13v-1.07h-1.01s.49,3.94,2.47,6.85c1.97,2.9,0,14.4,0,14.4l-7.29-6.07c-.12-.1-.26-.16-.39-.2-.9-.8-1.96-1.41-3.16-1.77l-9.21-2.8c-1.2-.36-2.3-1.01-3.21-1.88l-11.97-11.51-7.13-6.9-2.61-1.76-.58,1.1,1.27,1.39-1.27,2.01,1.99,2.57,3.21.48s18.97,20.02,18.46,25.37c-.5,5.35-2.05,22.29-2.05,22.29,0,0,.67.82,2.05,1.82v37.78s2.44,5.44,14.25,1.99l3.27-37.04c.81-.18,1.65-.4,2.52-.67l-2.72-24.09,3.45,4.94s3.87-.23,5.14-1.5-1.27-18.03-1.27-18.03Z"/>
      <path class="cls-6" d="m1841.99,100.28s-.39-9.66-15.37-11.07-31.37-.74-31.37-.74"/>
      <g>
        <polygon class="cls-32" points="444.24 123.99 516.4 117.33 588.36 119.71 509.75 128.87 444.24 123.99"/>
        <path class="cls-48" d="m516.4,117.46l70.29,2.32-76.92,8.96-64.02-4.77,70.65-6.52m0-.25l-73.65,6.8,67.01,4.99,80.29-9.35-73.65-2.43h0Z"/>
      </g>
    </g>
  </g>
</svg>